<?xml version="1.0" encoding="utf-8"?>
<!-- Generator: Adobe Illustrator 17.1.0, SVG Export Plug-In . SVG Version: 6.00 Build 0)  -->
<!DOCTYPE svg PUBLIC "-//W3C//DTD SVG 1.1//EN" "http://www.w3.org/Graphics/SVG/1.1/DTD/svg11.dtd">
<svg version="1.1" id="Layer_1" xmlns="http://www.w3.org/2000/svg" xmlns:xlink="http://www.w3.org/1999/xlink" x="0px" y="0px"
	 viewBox="0 0 40.4 25.7" enable-background="new 0 0 40.4 25.7" xml:space="preserve">
<g>
	<defs>
		<rect id="SVGID_1_" y="0" width="40.4" height="25.7"/>
	</defs>
	<clipPath id="SVGID_2_">
		<use xlink:href="#SVGID_1_"  overflow="visible"/>
	</clipPath>
	<path clip-path="url(#SVGID_2_)" fill="#FFFFFF" d="M12.8,10.3v5.1c0,0,4.9,0,6.9,0c-1.1,3.3-2.8,5.1-6.9,5.1
		c-4.2,0-7.5-3.4-7.5-7.6c0-4.2,3.3-7.6,7.5-7.6c2.2,0,3.7,0.8,5,1.9c1.1-1.1,1-1.2,3.6-3.7C19.2,1.3,16.1,0,12.8,0
		C5.7,0,0,5.7,0,12.8c0,7.1,5.7,12.8,12.8,12.8c10.6,0,13.2-9.2,12.3-15.4H12.8z"/>
	<polygon clip-path="url(#SVGID_2_)" fill="#FFFFFF" points="35.9,10.6 35.9,6.1 32.7,6.1 32.7,10.6 28.2,10.6 28.2,13.7 32.7,13.7 
		32.7,18.3 35.9,18.3 35.9,13.7 40.4,13.7 40.4,10.6 	"/>
</g>
</svg>
