<?xml version="1.0" encoding="utf-8"?>
<!-- Generator: Adobe Illustrator 17.1.0, SVG Export Plug-In . SVG Version: 6.00 Build 0)  -->
<!DOCTYPE svg PUBLIC "-//W3C//DTD SVG 1.1//EN" "http://www.w3.org/Graphics/SVG/1.1/DTD/svg11.dtd">
<svg version="1.1" id="Layer_1" xmlns="http://www.w3.org/2000/svg" xmlns:xlink="http://www.w3.org/1999/xlink" x="0px" y="0px"
	 viewBox="0 0 36.9 33.5" enable-background="new 0 0 36.9 33.5" xml:space="preserve">
<rect x="0.9" y="10.8" fill="#FFFFFF" width="7.2" height="22.8"/>
<g>
	<defs>
		<rect id="SVGID_1_" y="0" width="36.9" height="33.5"/>
	</defs>
	<clipPath id="SVGID_2_">
		<use xlink:href="#SVGID_1_"  overflow="visible"/>
	</clipPath>
	<path clip-path="url(#SVGID_2_)" fill="#FFFFFF" d="M27.8,10.5c-4.1,0-6.7,2.2-7.2,3.8v-3.6h-8.1c0.1,1.9,0,22.8,0,22.8h8.1V21.2
		c0-0.7,0-1.4,0.2-1.9c0.6-1.4,1.7-2.8,3.9-2.8c2.8,0,4.1,2.1,4.1,5.2v11.8h8.2V20.9C36.9,13.8,32.9,10.5,27.8,10.5"/>
	<path clip-path="url(#SVGID_2_)" fill="#FFFFFF" d="M4.4,0C1.7,0,0,1.7,0,4c0,2.2,1.7,3.9,4.3,3.9h0.1c2.7,0,4.4-1.7,4.4-4
		C8.7,1.7,7,0,4.4,0"/>
</g>
</svg>
