<svg xmlns="http://www.w3.org/2000/svg" width="11" height="11" viewBox="0 0 11 11">
  <defs>
    <style>
      .cls-1 {
        fill: #e9bf3b;
        fill-rule: evenodd;
      }
    </style>
  </defs>
  <path id="Ellipse_2_copy_8" data-name="Ellipse 2 copy 8" class="cls-1" d="M5.5,0A5.5,5.5,0,1,1,0,5.5,5.5,5.5,0,0,1,5.5,0Zm0,50A5.5,5.5,0,1,1,0,55.5,5.5,5.5,0,0,1,5.5,50Zm0,50A5.5,5.5,0,1,1,0,105.5,5.5,5.5,0,0,1,5.5,100Zm0,50A5.5,5.5,0,1,1,0,155.5,5.5,5.5,0,0,1,5.5,150Zm0,50A5.5,5.5,0,1,1,0,205.5,5.5,5.5,0,0,1,5.5,200Zm0,50A5.5,5.5,0,1,1,0,255.5,5.5,5.5,0,0,1,5.5,250Zm0,50A5.5,5.5,0,1,1,0,305.5,5.5,5.5,0,0,1,5.5,300Zm0,50A5.5,5.5,0,1,1,0,355.5,5.5,5.5,0,0,1,5.5,350Zm0,50A5.5,5.5,0,1,1,0,405.5,5.5,5.5,0,0,1,5.5,400Z"/>
</svg>
