<?xml version="1.0" encoding="utf-8"?>
<!-- Generator: Adobe Illustrator 19.2.0, SVG Export Plug-In . SVG Version: 6.00 Build 0)  -->
<svg version="1.1" id="Layer_1" xmlns="http://www.w3.org/2000/svg" xmlns:xlink="http://www.w3.org/1999/xlink" x="0px" y="0px"
	 viewBox="0 0 68.7 11.8" style="enable-background:new 0 0 68.7 11.8;" xml:space="preserve">
<style type="text/css">
	.st0{fill:#666666;}
	.st1{fill-rule:evenodd;clip-rule:evenodd;fill:#424242;}
</style>
<path class="st0" d="M11.9,11.2v0.6H0v-0.6H11.9z M11.9,1.1v0.6H0V1.1H11.9z M11.9,10.1v0.6H0v-0.6H11.9z M11.9,9.6H0V9h11.9V9.6z
	 M2.7,8.5H0V7.8h2.7V8.5z M6.7,8.5H5.2V7.8h1.5L6.7,8.5z M11.9,8.5H9.2V7.8h2.7V8.5z M2.7,7.4H0V6.7h2.7V7.4z M6.7,7.4H5.2V6.7h1.5
	V7.4z M11.9,7.4H9.2V6.7h2.7V7.4z M2.7,4H0V3.4h2.7V4z M6.7,4H5.2V3.4h1.5V4z M11.9,4H9.2V3.4h2.7V4z M11.9,2.2v0.6H0V2.2H11.9z
	 M9.2,5.6h2.7v0.6H9.2V5.6z M0,5.6h2.7v0.6H0V5.6z M11.9,0.6H0V0h11.9V0.6z M2.7,5.1H0V4.5h2.7V5.1z M6.7,5.1H5.2V4.5h1.5V5.1z
	 M11.9,5.1H9.2V4.5h2.7V5.1z"/>
<path class="st1" d="M53,8.5l0.3-0.8l0,0h0l1.8,0h0l0,0l0.3,0.8H57l-1.8-5.1h-1.8l-1.8,5.1L53,8.5z M53.7,6.5l0.5-1.3l0-0.1l0,0.1
	l0.5,1.3l0,0h0L53.7,6.5L53.7,6.5L53.7,6.5z"/>
<polygon class="st1" points="59.3,6 61.4,8.5 62.7,8.5 62.7,3.4 61.1,3.4 61.1,5.9 61.1,6 61.1,5.9 59,3.4 57.7,3.4 57.7,8.5 
	59.2,8.5 59.2,6 59.2,5.9 "/>
<polygon class="st1" points="46.2,3.4 44.9,3.4 44.9,8.5 46.5,8.5 46.5,6.1 46.5,6 46.5,6 47.9,7.4 49.2,6 49.2,6 49.2,6.1 
	49.2,8.5 50.8,8.5 50.8,3.4 49.5,3.4 47.9,5.3 47.9,5.3 47.8,5.3 "/>
<polygon class="st1" points="41.2,4.8 41.2,8.5 42.8,8.5 42.8,4.8 42.8,4.8 42.8,4.8 44.1,4.8 44.1,3.4 39.8,3.4 39.8,4.8 41.1,4.8 
	41.2,4.8 "/>
<path class="st1" d="M28.7,3.4V6c0,0.8,0.2,1.4,0.6,1.8c0.4,0.4,1,0.6,1.8,0.6c0.7,0,1.3-0.2,1.8-0.6c0.4-0.4,0.7-1,0.7-1.7V3.4H32
	c0,0.5,0,1,0,1.4c0,0.5,0,0.9,0,1.2c0,0.3-0.1,0.6-0.2,0.8c-0.1,0.2-0.4,0.3-0.7,0.3c-0.3,0-0.5-0.1-0.7-0.3
	c-0.2-0.2-0.2-0.4-0.2-0.8c0-0.3,0-0.7,0-1.1c0-0.5,0-1,0-1.6H28.7z"/>
<path class="st1" d="M36.3,7.2c0.1,0,0.3,0,0.4,0c0.8,0,1.5,0,2-0.5c0.3-0.2,0.5-0.6,0.6-1c0.1-0.4,0.1-0.8-0.1-1.2
	c-0.6-1.5-3.1-1.2-4.4-1.2l0,5.1h1.5L36.3,7.2L36.3,7.2L36.3,7.2z M36.3,4.8c0.1,0,0.2,0,0.2,0c0.1,0,0.2,0,0.2,0
	c0.5,0,0.9,0.1,0.9,0.5c0,0.6-0.7,0.6-1.2,0.6c0,0-0.1,0-0.1,0h0v0L36.3,4.8L36.3,4.8L36.3,4.8z"/>
<path class="st1" d="M24.3,8.5l0.3-0.8l0,0h0l1.8,0h0l0,0l0.3,0.8h1.5l-1.8-5.1h-1.8l-1.8,5.1L24.3,8.5z M25,6.5l0.5-1.3l0-0.1
	l0,0.1L26,6.5l0,0h0L25,6.5L25,6.5L25,6.5z"/>
<polygon class="st1" points="18.7,6.6 20.4,6.6 20.4,6.6 20.4,6.6 20.4,8.5 22.1,8.5 22.1,3.4 20.4,3.4 20.4,5.2 20.4,5.2 20.4,5.2 
	18.7,5.2 18.6,5.2 18.6,5.2 18.6,3.4 17,3.4 17,8.5 18.6,8.5 18.6,6.6 18.6,6.6 "/>
<polygon class="st1" points="65.3,6 67.4,8.5 68.7,8.5 68.7,3.4 67.1,3.4 67.1,5.9 67.1,6 67.1,5.9 65,3.4 63.7,3.4 63.7,8.5 
	65.2,8.5 65.2,6 65.2,5.9 "/>
</svg>
