<?xml version="1.0" encoding="utf-8"?>
<!-- Generator: Adobe Illustrator 19.2.0, SVG Export Plug-In . SVG Version: 6.00 Build 0)  -->
<svg version="1.1" id="Layer_1" xmlns="http://www.w3.org/2000/svg" xmlns:xlink="http://www.w3.org/1999/xlink" x="0px" y="0px"
	 viewBox="0 0 45 45" style="enable-background:new 0 0 45 45;" xml:space="preserve">
<style type="text/css">
	.st0{fill-rule:evenodd;clip-rule:evenodd;fill:#373737;}
</style>
<g>
	<g>
		<path class="st0" d="M24,16h-3v5h-5v3h5v5h3v-5h5v-3h-5V16z M45,22.5C45,10.1,34.9,0,22.5,0C10.1,0,0,10.1,0,22.5
			C0,34.9,10.1,45,22.5,45c5.7,0,10.9-2.1,14.9-5.6L43,45l2-2l-5.6-5.6C42.9,33.4,45,28.2,45,22.5z M22.5,42C11.7,42,3,33.3,3,22.5
			C3,11.7,11.7,3,22.5,3C33.3,3,42,11.7,42,22.5C42,33.3,33.3,42,22.5,42z"/>
	</g>
</g>
</svg>
